<svg xmlns="http://www.w3.org/2000/svg" xmlns:xlink="http://www.w3.org/1999/xlink" width="300" zoomAndPan="magnify" viewBox="0 0 224.87999 74.999997" height="100" preserveAspectRatio="xMidYMid meet" version="1.0"><defs><g/></defs><g fill="#ffffff" fill-opacity="1"><g transform="translate(5.907758, 58.989497)"><g><path d="M 26.984375 -44.484375 C 26.984375 -42.921875 26.445312 -41.503906 25.375 -40.234375 C 24.3125 -38.960938 23.007812 -37.820312 21.46875 -36.8125 C 19.925781 -35.8125 18.3125 -34.941406 16.625 -34.203125 C 14.945312 -33.460938 13.492188 -32.84375 12.265625 -32.34375 C 12.265625 -31.476562 12.242188 -30.59375 12.203125 -29.6875 C 12.160156 -28.789062 12.097656 -27.890625 12.015625 -26.984375 C 13.328125 -27.640625 14.804688 -28.253906 16.453125 -28.828125 C 18.097656 -29.410156 19.660156 -29.703125 21.140625 -29.703125 C 22.328125 -29.703125 23.300781 -29.453125 24.0625 -28.953125 C 24.820312 -28.460938 25.203125 -27.601562 25.203125 -26.375 C 25.203125 -25.019531 24.71875 -23.804688 23.75 -22.734375 C 22.78125 -21.671875 21.617188 -20.726562 20.265625 -19.90625 C 18.910156 -19.082031 17.492188 -18.378906 16.015625 -17.796875 C 14.535156 -17.222656 13.285156 -16.773438 12.265625 -16.453125 C 12.265625 -15.097656 12.242188 -13.75 12.203125 -12.40625 C 12.160156 -11.070312 12.097656 -9.75 12.015625 -8.4375 C 11.972656 -7.78125 11.898438 -6.957031 11.796875 -5.96875 C 11.691406 -4.988281 11.484375 -4.035156 11.171875 -3.109375 C 10.867188 -2.179688 10.429688 -1.378906 9.859375 -0.703125 C 9.285156 -0.0234375 8.546875 0.3125 7.640625 0.3125 C 6.773438 0.3125 6.035156 -0.109375 5.421875 -0.953125 C 4.804688 -1.796875 4.28125 -2.875 3.84375 -4.1875 C 3.414062 -5.5 3.066406 -6.96875 2.796875 -8.59375 C 2.535156 -10.21875 2.332031 -11.8125 2.1875 -13.375 C 2.039062 -14.9375 1.957031 -16.375 1.9375 -17.6875 C 1.914062 -19 1.90625 -20.003906 1.90625 -20.703125 C 1.90625 -21.234375 1.914062 -22.019531 1.9375 -23.0625 C 1.957031 -24.113281 1.976562 -25.273438 2 -26.546875 C 2.019531 -27.828125 2.0625 -29.164062 2.125 -30.5625 C 2.1875 -31.957031 2.257812 -33.28125 2.34375 -34.53125 C 2.425781 -35.789062 2.535156 -36.898438 2.671875 -37.859375 C 2.816406 -38.828125 2.992188 -39.535156 3.203125 -39.984375 C 3.648438 -40.890625 4.726562 -41.785156 6.4375 -42.671875 C 8.144531 -43.554688 10.046875 -44.335938 12.140625 -45.015625 C 14.234375 -45.691406 16.273438 -46.242188 18.265625 -46.671875 C 20.253906 -47.109375 21.785156 -47.328125 22.859375 -47.328125 C 23.347656 -47.328125 23.828125 -47.296875 24.296875 -47.234375 C 24.773438 -47.171875 25.21875 -47.035156 25.625 -46.828125 C 26.039062 -46.617188 26.367188 -46.328125 26.609375 -45.953125 C 26.859375 -45.585938 26.984375 -45.097656 26.984375 -44.484375 Z M 26.984375 -44.484375 "/></g></g><g transform="translate(31.354839, 58.989497)"><g><path d="M 23.234375 -23.046875 C 22.648438 -23.003906 22.15625 -23.050781 21.75 -23.1875 C 21.34375 -23.332031 20.929688 -23.488281 20.515625 -23.65625 C 20.148438 -23.820312 19.78125 -23.976562 19.40625 -24.125 C 19.039062 -24.269531 18.628906 -24.320312 18.171875 -24.28125 C 17.347656 -24.238281 16.617188 -24.007812 15.984375 -23.59375 C 15.347656 -23.1875 14.773438 -22.675781 14.265625 -22.0625 C 13.753906 -21.445312 13.3125 -20.757812 12.9375 -20 C 12.570312 -19.238281 12.285156 -18.488281 12.078125 -17.75 C 11.953125 -17.25 11.859375 -16.492188 11.796875 -15.484375 C 11.734375 -14.484375 11.703125 -13.410156 11.703125 -12.265625 C 11.660156 -11.066406 11.640625 -9.929688 11.640625 -8.859375 C 11.640625 -7.796875 11.597656 -6.957031 11.515625 -6.34375 C 11.472656 -5.6875 11.367188 -4.914062 11.203125 -4.03125 C 11.046875 -3.15625 10.789062 -2.328125 10.4375 -1.546875 C 10.09375 -0.765625 9.628906 -0.109375 9.046875 0.421875 C 8.472656 0.960938 7.738281 1.234375 6.84375 1.234375 C 6.144531 1.234375 5.535156 1.023438 5.015625 0.609375 C 4.503906 0.203125 4.070312 -0.335938 3.71875 -1.015625 C 3.375 -1.691406 3.085938 -2.484375 2.859375 -3.390625 C 2.640625 -4.296875 2.46875 -5.21875 2.34375 -6.15625 C 2.21875 -7.144531 2.125 -8.128906 2.0625 -9.109375 C 2 -10.097656 1.957031 -11.035156 1.9375 -11.921875 C 1.914062 -12.804688 1.914062 -13.617188 1.9375 -14.359375 C 1.957031 -15.097656 1.96875 -15.691406 1.96875 -16.140625 C 1.925781 -17.578125 1.851562 -19.023438 1.75 -20.484375 C 1.65625 -21.941406 1.609375 -23.390625 1.609375 -24.828125 C 1.609375 -25.734375 1.644531 -26.738281 1.71875 -27.84375 C 1.800781 -28.957031 2.023438 -29.992188 2.390625 -30.953125 C 2.765625 -31.921875 3.3125 -32.734375 4.03125 -33.390625 C 4.75 -34.046875 5.75 -34.375 7.03125 -34.375 C 7.726562 -34.375 8.320312 -34.148438 8.8125 -33.703125 C 9.300781 -33.253906 9.695312 -32.695312 10 -32.03125 C 10.3125 -31.375 10.550781 -30.675781 10.71875 -29.9375 C 10.882812 -29.195312 10.988281 -28.519531 11.03125 -27.90625 C 12.019531 -29.507812 13.128906 -30.8125 14.359375 -31.8125 C 15.585938 -32.820312 17.1875 -33.367188 19.15625 -33.453125 C 20.144531 -33.492188 21.117188 -33.398438 22.078125 -33.171875 C 23.046875 -32.953125 23.929688 -32.582031 24.734375 -32.0625 C 25.535156 -31.550781 26.191406 -30.882812 26.703125 -30.0625 C 27.222656 -29.238281 27.503906 -28.273438 27.546875 -27.171875 C 27.628906 -25.859375 27.238281 -24.851562 26.375 -24.15625 C 25.507812 -23.457031 24.460938 -23.085938 23.234375 -23.046875 Z M 23.234375 -23.046875 "/></g></g><g transform="translate(57.972609, 58.989497)"><g><path d="M 27.671875 -10.96875 C 27.671875 -9.570312 27.226562 -8.207031 26.34375 -6.875 C 25.457031 -5.539062 24.347656 -4.347656 23.015625 -3.296875 C 21.679688 -2.242188 20.253906 -1.398438 18.734375 -0.765625 C 17.210938 -0.128906 15.816406 0.1875 14.546875 0.1875 C 12.367188 0.1875 10.425781 -0.351562 8.71875 -1.4375 C 7.007812 -2.53125 5.582031 -3.921875 4.4375 -5.609375 C 3.289062 -7.296875 2.414062 -9.15625 1.8125 -11.1875 C 1.21875 -13.21875 0.921875 -15.195312 0.921875 -17.125 C 0.921875 -19.175781 1.207031 -21.375 1.78125 -23.71875 C 2.363281 -26.0625 3.238281 -28.21875 4.40625 -30.1875 C 5.570312 -32.164062 7.046875 -33.8125 8.828125 -35.125 C 10.617188 -36.4375 12.75 -37.09375 15.21875 -37.09375 C 16.613281 -37.09375 17.945312 -36.851562 19.21875 -36.375 C 20.5 -35.90625 21.609375 -35.238281 22.546875 -34.375 C 23.492188 -33.519531 24.253906 -32.492188 24.828125 -31.296875 C 25.398438 -30.109375 25.6875 -28.773438 25.6875 -27.296875 C 25.6875 -25.367188 25.273438 -23.5625 24.453125 -21.875 C 23.640625 -20.1875 22.550781 -18.726562 21.1875 -17.5 C 19.832031 -16.269531 18.269531 -15.273438 16.5 -14.515625 C 14.738281 -13.753906 12.9375 -13.332031 11.09375 -13.25 C 11.257812 -12.050781 11.738281 -11.1875 12.53125 -10.65625 C 13.332031 -10.125 14.289062 -9.859375 15.40625 -9.859375 C 16.226562 -9.859375 17.03125 -10.0625 17.8125 -10.46875 C 18.59375 -10.882812 19.351562 -11.347656 20.09375 -11.859375 C 20.832031 -12.367188 21.5625 -12.828125 22.28125 -13.234375 C 23 -13.648438 23.726562 -13.859375 24.46875 -13.859375 C 25.28125 -13.859375 26.015625 -13.59375 26.671875 -13.0625 C 27.335938 -12.53125 27.671875 -11.832031 27.671875 -10.96875 Z M 17.6875 -26.0625 C 17.6875 -26.59375 17.539062 -27.144531 17.25 -27.71875 C 16.96875 -28.300781 16.515625 -28.59375 15.890625 -28.59375 C 14.992188 -28.59375 14.234375 -28.351562 13.609375 -27.875 C 12.992188 -27.40625 12.476562 -26.8125 12.0625 -26.09375 C 11.65625 -25.375 11.335938 -24.601562 11.109375 -23.78125 C 10.890625 -22.957031 10.757812 -22.195312 10.71875 -21.5 C 11.289062 -21.625 11.976562 -21.785156 12.78125 -21.984375 C 13.582031 -22.191406 14.34375 -22.472656 15.0625 -22.828125 C 15.78125 -23.179688 16.394531 -23.625 16.90625 -24.15625 C 17.425781 -24.6875 17.6875 -25.320312 17.6875 -26.0625 Z M 17.6875 -26.0625 "/></g></g><g transform="translate(86.253991, 58.989497)"><g><path d="M 27.671875 -10.96875 C 27.671875 -9.570312 27.226562 -8.207031 26.34375 -6.875 C 25.457031 -5.539062 24.347656 -4.347656 23.015625 -3.296875 C 21.679688 -2.242188 20.253906 -1.398438 18.734375 -0.765625 C 17.210938 -0.128906 15.816406 0.1875 14.546875 0.1875 C 12.367188 0.1875 10.425781 -0.351562 8.71875 -1.4375 C 7.007812 -2.53125 5.582031 -3.921875 4.4375 -5.609375 C 3.289062 -7.296875 2.414062 -9.15625 1.8125 -11.1875 C 1.21875 -13.21875 0.921875 -15.195312 0.921875 -17.125 C 0.921875 -19.175781 1.207031 -21.375 1.78125 -23.71875 C 2.363281 -26.0625 3.238281 -28.21875 4.40625 -30.1875 C 5.570312 -32.164062 7.046875 -33.8125 8.828125 -35.125 C 10.617188 -36.4375 12.75 -37.09375 15.21875 -37.09375 C 16.613281 -37.09375 17.945312 -36.851562 19.21875 -36.375 C 20.5 -35.90625 21.609375 -35.238281 22.546875 -34.375 C 23.492188 -33.519531 24.253906 -32.492188 24.828125 -31.296875 C 25.398438 -30.109375 25.6875 -28.773438 25.6875 -27.296875 C 25.6875 -25.367188 25.273438 -23.5625 24.453125 -21.875 C 23.640625 -20.1875 22.550781 -18.726562 21.1875 -17.5 C 19.832031 -16.269531 18.269531 -15.273438 16.5 -14.515625 C 14.738281 -13.753906 12.9375 -13.332031 11.09375 -13.25 C 11.257812 -12.050781 11.738281 -11.1875 12.53125 -10.65625 C 13.332031 -10.125 14.289062 -9.859375 15.40625 -9.859375 C 16.226562 -9.859375 17.03125 -10.0625 17.8125 -10.46875 C 18.59375 -10.882812 19.351562 -11.347656 20.09375 -11.859375 C 20.832031 -12.367188 21.5625 -12.828125 22.28125 -13.234375 C 23 -13.648438 23.726562 -13.859375 24.46875 -13.859375 C 25.28125 -13.859375 26.015625 -13.59375 26.671875 -13.0625 C 27.335938 -12.53125 27.671875 -11.832031 27.671875 -10.96875 Z M 17.6875 -26.0625 C 17.6875 -26.59375 17.539062 -27.144531 17.25 -27.71875 C 16.96875 -28.300781 16.515625 -28.59375 15.890625 -28.59375 C 14.992188 -28.59375 14.234375 -28.351562 13.609375 -27.875 C 12.992188 -27.40625 12.476562 -26.8125 12.0625 -26.09375 C 11.65625 -25.375 11.335938 -24.601562 11.109375 -23.78125 C 10.890625 -22.957031 10.757812 -22.195312 10.71875 -21.5 C 11.289062 -21.625 11.976562 -21.785156 12.78125 -21.984375 C 13.582031 -22.191406 14.34375 -22.472656 15.0625 -22.828125 C 15.78125 -23.179688 16.394531 -23.625 16.90625 -24.15625 C 17.425781 -24.6875 17.6875 -25.320312 17.6875 -26.0625 Z M 17.6875 -26.0625 "/></g></g><g transform="translate(114.535372, 58.989497)"><g><path d="M 24.703125 -23.65625 C 24.703125 -23.457031 24.679688 -23.242188 24.640625 -23.015625 C 24.597656 -22.785156 24.539062 -22.566406 24.46875 -22.359375 C 24.09375 -21.421875 23.515625 -20.628906 22.734375 -19.984375 C 21.953125 -19.347656 21.03125 -19.03125 19.96875 -19.03125 C 18.363281 -19.03125 17.273438 -19.832031 16.703125 -21.4375 C 16.617188 -21.644531 16.578125 -21.878906 16.578125 -22.140625 C 16.578125 -22.410156 16.554688 -22.691406 16.515625 -22.984375 L 16.515625 -24.765625 C 16.429688 -25.335938 16.285156 -25.789062 16.078125 -26.125 C 15.878906 -26.457031 15.53125 -26.625 15.03125 -26.625 C 14.332031 -26.625 13.664062 -26.179688 13.03125 -25.296875 C 12.394531 -24.410156 11.835938 -23.359375 11.359375 -22.140625 C 10.890625 -20.929688 10.507812 -19.691406 10.21875 -18.421875 C 9.9375 -17.148438 9.796875 -16.125 9.796875 -15.34375 C 9.796875 -14.726562 9.835938 -13.976562 9.921875 -13.09375 C 10.003906 -12.207031 10.164062 -11.351562 10.40625 -10.53125 C 10.65625 -9.707031 10.992188 -9 11.421875 -8.40625 C 11.859375 -7.8125 12.425781 -7.515625 13.125 -7.515625 C 13.820312 -7.515625 14.46875 -7.726562 15.0625 -8.15625 C 15.65625 -8.59375 16.242188 -9.097656 16.828125 -9.671875 C 17.359375 -10.160156 17.941406 -10.671875 18.578125 -11.203125 C 19.210938 -11.742188 19.941406 -12.015625 20.765625 -12.015625 C 21.785156 -12.015625 22.59375 -11.644531 23.1875 -10.90625 C 23.789062 -10.164062 24.09375 -9.320312 24.09375 -8.375 C 24.09375 -6.976562 23.722656 -5.675781 22.984375 -4.46875 C 22.242188 -3.257812 21.316406 -2.210938 20.203125 -1.328125 C 19.097656 -0.441406 17.867188 0.253906 16.515625 0.765625 C 15.160156 1.285156 13.863281 1.546875 12.625 1.546875 C 10.40625 1.546875 8.523438 0.992188 6.984375 -0.109375 C 5.453125 -1.222656 4.210938 -2.632812 3.265625 -4.34375 C 2.316406 -6.050781 1.632812 -7.910156 1.21875 -9.921875 C 0.8125 -11.929688 0.609375 -13.84375 0.609375 -15.65625 C 0.609375 -17.75 0.894531 -20.015625 1.46875 -22.453125 C 2.050781 -24.898438 2.9375 -27.171875 4.125 -29.265625 C 5.320312 -31.359375 6.851562 -33.101562 8.71875 -34.5 C 10.582031 -35.894531 12.8125 -36.59375 15.40625 -36.59375 C 17.007812 -36.59375 18.394531 -36.242188 19.5625 -35.546875 C 20.726562 -34.847656 21.691406 -33.929688 22.453125 -32.796875 C 23.210938 -31.671875 23.785156 -30.410156 24.171875 -29.015625 C 24.566406 -27.617188 24.765625 -26.242188 24.765625 -24.890625 C 24.765625 -24.679688 24.765625 -24.472656 24.765625 -24.265625 C 24.765625 -24.066406 24.742188 -23.863281 24.703125 -23.65625 Z M 24.703125 -23.65625 "/></g></g><g transform="translate(140.845067, 58.989497)"><g><path d="M 13.5625 1.78125 C 11.457031 1.78125 9.625 1.222656 8.0625 0.109375 C 6.507812 -0.992188 5.195312 -2.40625 4.125 -4.125 C 3.0625 -5.851562 2.257812 -7.773438 1.71875 -9.890625 C 1.1875 -12.003906 0.921875 -14.085938 0.921875 -16.140625 C 0.921875 -18.316406 1.1875 -20.566406 1.71875 -22.890625 C 2.257812 -25.210938 3.082031 -27.328125 4.1875 -29.234375 C 5.300781 -31.140625 6.71875 -32.695312 8.4375 -33.90625 C 10.164062 -35.125 12.222656 -35.734375 14.609375 -35.734375 C 16.898438 -35.734375 18.859375 -35.109375 20.484375 -33.859375 C 22.109375 -32.609375 23.410156 -31.046875 24.390625 -29.171875 C 25.378906 -27.304688 26.078125 -25.265625 26.484375 -23.046875 C 26.898438 -20.828125 27.046875 -18.734375 26.921875 -16.765625 C 26.796875 -14.585938 26.457031 -12.390625 25.90625 -10.171875 C 25.351562 -7.953125 24.539062 -5.957031 23.46875 -4.1875 C 22.40625 -2.425781 21.050781 -0.992188 19.40625 0.109375 C 17.757812 1.222656 15.8125 1.78125 13.5625 1.78125 Z M 14.171875 -26.0625 C 13.554688 -26.0625 13.007812 -25.734375 12.53125 -25.078125 C 12.0625 -24.421875 11.671875 -23.617188 11.359375 -22.671875 C 11.054688 -21.722656 10.820312 -20.722656 10.65625 -19.671875 C 10.488281 -18.628906 10.40625 -17.71875 10.40625 -16.9375 C 10.40625 -15.957031 10.5 -14.890625 10.6875 -13.734375 C 10.875 -12.585938 11.128906 -11.53125 11.453125 -10.5625 C 11.785156 -9.601562 12.1875 -8.800781 12.65625 -8.15625 C 13.132812 -7.519531 13.679688 -7.203125 14.296875 -7.203125 C 14.953125 -7.203125 15.515625 -7.507812 15.984375 -8.125 C 16.460938 -8.75 16.84375 -9.53125 17.125 -10.46875 C 17.414062 -11.414062 17.625 -12.453125 17.75 -13.578125 C 17.875 -14.710938 17.9375 -15.773438 17.9375 -16.765625 C 17.9375 -17.660156 17.851562 -18.648438 17.6875 -19.734375 C 17.519531 -20.828125 17.28125 -21.847656 16.96875 -22.796875 C 16.664062 -23.742188 16.273438 -24.523438 15.796875 -25.140625 C 15.328125 -25.753906 14.785156 -26.0625 14.171875 -26.0625 Z M 14.171875 -26.0625 "/></g></g><g transform="translate(169.064833, 58.989497)"><g><path d="M 19.34375 1.71875 C 18.644531 1.71875 18.085938 1.398438 17.671875 0.765625 C 17.265625 0.128906 16.957031 -0.597656 16.75 -1.421875 C 16.550781 -2.242188 16.421875 -3.070312 16.359375 -3.90625 C 16.296875 -4.75 16.265625 -5.398438 16.265625 -5.859375 C 16.265625 -7.085938 16.335938 -8.316406 16.484375 -9.546875 C 16.628906 -10.785156 16.789062 -12.019531 16.96875 -13.25 C 17.15625 -14.476562 17.320312 -15.707031 17.46875 -16.9375 C 17.613281 -18.175781 17.6875 -19.410156 17.6875 -20.640625 C 17.6875 -21.128906 17.664062 -21.660156 17.625 -22.234375 C 17.582031 -22.816406 17.488281 -23.363281 17.34375 -23.875 C 17.195312 -24.382812 16.957031 -24.800781 16.625 -25.125 C 16.300781 -25.457031 15.875 -25.625 15.34375 -25.625 C 14.96875 -25.625 14.554688 -25.328125 14.109375 -24.734375 C 13.660156 -24.140625 13.238281 -23.460938 12.84375 -22.703125 C 12.457031 -21.941406 12.128906 -21.179688 11.859375 -20.421875 C 11.585938 -19.660156 11.453125 -19.097656 11.453125 -18.734375 C 11.453125 -17.828125 11.460938 -16.910156 11.484375 -15.984375 C 11.503906 -15.066406 11.515625 -14.132812 11.515625 -13.1875 L 11.515625 -9.609375 C 11.472656 -8.867188 11.410156 -8.109375 11.328125 -7.328125 C 11.253906 -6.546875 11.132812 -5.785156 10.96875 -5.046875 C 10.84375 -4.304688 10.65625 -3.597656 10.40625 -2.921875 C 10.164062 -2.242188 9.847656 -1.648438 9.453125 -1.140625 C 9.066406 -0.628906 8.601562 -0.210938 8.0625 0.109375 C 7.53125 0.441406 6.894531 0.609375 6.15625 0.609375 C 5.332031 0.609375 4.65625 0.34375 4.125 -0.1875 C 3.59375 -0.71875 3.160156 -1.40625 2.828125 -2.25 C 2.503906 -3.09375 2.269531 -4.035156 2.125 -5.078125 C 1.976562 -6.128906 1.875 -7.15625 1.8125 -8.15625 C 1.75 -9.164062 1.726562 -10.09375 1.75 -10.9375 C 1.769531 -11.78125 1.78125 -12.445312 1.78125 -12.9375 L 1.78125 -15.828125 C 1.78125 -17.390625 1.75 -18.929688 1.6875 -20.453125 C 1.632812 -21.972656 1.609375 -23.492188 1.609375 -25.015625 C 1.609375 -25.835938 1.613281 -26.882812 1.625 -28.15625 C 1.644531 -29.425781 1.800781 -30.664062 2.09375 -31.875 C 2.382812 -33.09375 2.859375 -34.132812 3.515625 -35 C 4.171875 -35.863281 5.132812 -36.296875 6.40625 -36.296875 C 6.976562 -36.296875 7.488281 -36.109375 7.9375 -35.734375 C 8.394531 -35.367188 8.796875 -34.914062 9.140625 -34.375 C 9.492188 -33.84375 9.78125 -33.269531 10 -32.65625 C 10.226562 -32.039062 10.40625 -31.503906 10.53125 -31.046875 C 10.945312 -31.628906 11.429688 -32.1875 11.984375 -32.71875 C 12.535156 -33.25 13.160156 -33.71875 13.859375 -34.125 C 14.554688 -34.539062 15.335938 -34.867188 16.203125 -35.109375 C 17.066406 -35.359375 18.050781 -35.484375 19.15625 -35.484375 C 21.25 -35.484375 22.878906 -34.976562 24.046875 -33.96875 C 25.222656 -32.96875 26.085938 -31.71875 26.640625 -30.21875 C 27.203125 -28.71875 27.539062 -27.101562 27.65625 -25.375 C 27.78125 -23.65625 27.84375 -22.097656 27.84375 -20.703125 C 27.84375 -20.003906 27.78125 -18.96875 27.65625 -17.59375 C 27.539062 -16.21875 27.347656 -14.695312 27.078125 -13.03125 C 26.804688 -11.363281 26.445312 -9.65625 26 -7.90625 C 25.550781 -6.164062 25.015625 -4.578125 24.390625 -3.140625 C 23.773438 -1.703125 23.046875 -0.535156 22.203125 0.359375 C 21.367188 1.265625 20.414062 1.71875 19.34375 1.71875 Z M 19.34375 1.71875 "/></g></g><g transform="translate(198.516904, 58.989497)"><g><path d="M 19.90625 -33.890625 C 19.90625 -32.691406 19.503906 -31.804688 18.703125 -31.234375 C 17.898438 -30.660156 17.003906 -30.113281 16.015625 -29.59375 C 15.035156 -29.082031 14.144531 -28.476562 13.34375 -27.78125 C 12.539062 -27.082031 12.140625 -26.035156 12.140625 -24.640625 C 12.140625 -23.898438 12.3125 -23.265625 12.65625 -22.734375 C 13.007812 -22.203125 13.441406 -21.71875 13.953125 -21.28125 C 14.460938 -20.851562 15.023438 -20.410156 15.640625 -19.953125 C 16.265625 -19.503906 16.832031 -18.992188 17.34375 -18.421875 C 17.851562 -17.847656 18.28125 -17.148438 18.625 -16.328125 C 18.976562 -15.503906 19.15625 -14.5 19.15625 -13.3125 C 19.15625 -11.582031 18.710938 -9.882812 17.828125 -8.21875 C 16.953125 -6.5625 15.828125 -5.082031 14.453125 -3.78125 C 13.078125 -2.488281 11.523438 -1.453125 9.796875 -0.671875 C 8.066406 0.109375 6.363281 0.5 4.6875 0.5 C 3.988281 0.5 3.289062 0.445312 2.59375 0.34375 C 1.894531 0.238281 1.265625 0.046875 0.703125 -0.234375 C 0.148438 -0.523438 -0.304688 -0.925781 -0.671875 -1.4375 C -1.046875 -1.957031 -1.234375 -2.628906 -1.234375 -3.453125 C -1.234375 -4.597656 -1.003906 -5.488281 -0.546875 -6.125 C -0.0976562 -6.757812 0.472656 -7.257812 1.171875 -7.625 C 1.867188 -8 2.617188 -8.289062 3.421875 -8.5 C 4.222656 -8.707031 4.972656 -8.960938 5.671875 -9.265625 C 6.367188 -9.578125 6.941406 -9.976562 7.390625 -10.46875 C 7.847656 -10.96875 8.078125 -11.664062 8.078125 -12.5625 C 8.078125 -13.425781 7.734375 -14.320312 7.046875 -15.25 C 6.367188 -16.175781 5.617188 -17.160156 4.796875 -18.203125 C 3.984375 -19.253906 3.238281 -20.375 2.5625 -21.5625 C 1.882812 -22.757812 1.546875 -24.078125 1.546875 -25.515625 C 1.546875 -27.273438 1.90625 -28.90625 2.625 -30.40625 C 3.34375 -31.90625 4.304688 -33.207031 5.515625 -34.3125 C 6.722656 -35.425781 8.109375 -36.300781 9.671875 -36.9375 C 11.234375 -37.570312 12.878906 -37.890625 14.609375 -37.890625 C 15.265625 -37.890625 15.910156 -37.828125 16.546875 -37.703125 C 17.179688 -37.585938 17.742188 -37.375 18.234375 -37.0625 C 18.734375 -36.75 19.132812 -36.335938 19.4375 -35.828125 C 19.75 -35.316406 19.90625 -34.671875 19.90625 -33.890625 Z M 19.90625 -33.890625 "/></g></g></g></svg>